<?xml version="1.0" encoding="UTF-8"?>
<svg id="Layer_1" data-name="Layer 1" xmlns="http://www.w3.org/2000/svg" viewBox="0 0 2161 205">
  <defs>
    <style>
      .cls-1 {
        fill: #dc242a;
      }
    </style>
  </defs>
  <path class="cls-1" d="m1211,0h11v205h-11V0Z"/>
  <path class="cls-1" d="m241,48h23v120h-23V48Z"/>
  <path class="cls-1" d="m286,48h89v22h-33v98h-23v-98h-33v-22Z"/>
  <path class="cls-1" d="m447,168h-23c1.12-63.28-18.71-82.28-42-120,9.26-.28,21.84-.92,28,2l26,45h1l26-47h26c-14,24-28,48-42,72v48Z"/>
  <path class="cls-1" d="m767,48h23v120h-23V48Z"/>
  <path class="cls-1" d="m929,48h22v98h50v22h-72V48Z"/>
  <path class="cls-1" d="m1840,74c-16.47-1.8-56.19-6.11-49,16,4.72,24.29,43.77,17.56,53,39,17.08,39.69-32.07,46.86-62,40v-11c17.41,1.79,41.94,7.3,49-8,4.69-8.37-.04-17.55-4-23-15.24-5.32-42.46-12.8-48-28-13.33-36.62,32.75-42.12,61-36v11Z"/>
  <path class="cls-1" d="m1409,62l64,1v10l-50,1v35h46v10h-46v40h50v10h-64V62Z"/>
  <path class="cls-1" d="m1600,159h50v10h-64c.33-35.66.67-71.34,1-107l13,1v96Z"/>
  <path class="cls-1" d="m1694,62h63v11h-49v36h46v10h-46v39h49v11h-63V62Z"/>
  <path class="cls-1" d="m1933,73h-33v96h-14v-96h-33l1-11,79,1v10Z"/>
  <path class="cls-1" d="m2084,73h-33v96h-14v-96h-33l1-11,79,1v10Z"/>
  <path class="cls-1" d="m2161,62v11h-50v36h46v10h-46c-.33,9.63-3.04,33.52,2,39,16,.33,32,.67,48,1v10h-64c.33-35.66.67-71.34,1-107h63Z"/>
  <path class="cls-1" d="m185,54c-15.91-7.37-41.49-6.51-65-6v120c37.67.76,68.12-.37,84-21,23.09-29.98,9.68-79.72-19-93Zm-42,92v-76c67.9-2.48,67.86,78.53,0,76Z"/>
  <path class="cls-1" d="m882,120c22.85-22.32,31.94-59.93-9-71-17.33-.33-34.67-.67-52-1v120h23v-44h14c9,14.67,18,29.33,27,44h26c-9.67-16-19.33-32-29-48Zm-6-23c-7.74,4.77-18.22,5.45-32,5v-32c15.64-.56,26.63-.66,33,8,1.34,6.47.6,13.61-1,19Z"/>
  <path class="cls-1" d="m1388,161c-3.67-.67-7.33-1.33-11-2-6.33-10-12.67-20-19-30,6.33-3.67,12.67-7.33,19-11,13.73-16.45,7.5-45.35-10-53-13.1-5.73-38.27-3.55-56-3v107h13v-40h21c4.51,12.08,20.75,49.19,41,41,2.18-2.16,2.14-4.31,2-9Zm-63-43v-45c15.27-.16,29.96.23,40,4,22.47,31.59-4.55,42.68-40,41Z"/>
  <path class="cls-1" d="m1539,63c-6.33-.33-12.67-.67-19-1-12.67,35.66-25.33,71.34-38,107h14c3-9.33,6-18.67,9-28,15.67-.33,31.33-.67,47-1,3,9.33,6,18.67,9,28,5,.33,10,.67,15,1-12.33-35.33-24.67-70.67-37-106Zm-30,67c6.33-19,12.67-38,19-57,9.82,10.08,17.64,41.49,20,57h-39Z"/>
  <path class="cls-1" d="m1977,62h-19c-12.33,35.66-24.67,71.34-37,107h14c5.52-34.45,17.18-30.03,56-29,3,9.67,6,19.33,9,29h14c-12.33-35.66-24.67-71.34-37-107Zm10,68h-39c6-18.66,12-37.34,18-56,7.44,4.62,17.22,44.26,21,55v1Z"/>
  <path class="cls-1" d="m1066,44c-16.67,41.33-33.33,82.67-50,124h22c7.81-27.77,12.74-25.99,48-25,3,8.33,6,16.67,9,25h23c-17.33-41.33-34.67-82.67-52-124Zm11,79h-21c3.33-8.67,6.67-17.33,10-26,3.67,8.33,7.33,16.67,11,25v1Z"/>
  <path class="cls-1" d="m51,44C34,85,17,126,0,167v1c24.85,1.27,27.5-7.18,32-25h38c3,8,6,16,9,24l2,1h21c-17-41.33-34-82.67-51-124Zm-10,79c3-8.33,6-16.67,9-25,5.23,3.87,9.78,17.67,11,25h-20Z"/>
  <path class="cls-1" d="m531,45c-16.67,40.66-33.34,81.34-50,122v1c23.46,1.27,28.14-5.88,31-24,12.33-.33,24.67-.67,37-1,5.19,5.14,9.12,17.1,11,25h23c-5.42-17.16-43.43-115.99-52-123Zm11,78h-21l10-25c3.67,8,7.33,16,11,24v1Z"/>
  <path class="cls-1" d="m728,105c13.24-5.4,8.54-36.19,2-45-11.54-15.55-45.7-12.59-73-12v120c41.09.75,84.58,5.05,85-35,.16-14.95-5.48-21.77-14-28Zm-48-36c11.7-.1,21.74.68,30,3,2.82,4.41,5.1,9.13,3,16-1.33,2-2.67,4-4,6-9.67.33-19.33.67-29,1v-26Zm34,75c-9.52,2.46-21.16,3.26-34,3v-31c24.88-1.36,50.62,4.85,34,28Z"/>
</svg>