<svg width="83" height="100" viewBox="0 0 83 100" fill="none" xmlns="http://www.w3.org/2000/svg">
<g clip-path="url(#clip0_921_726)">
<path d="M83 0H0V100H83V0Z" fill="white"/>
<path d="M16.7093 64.3521H14.6936V71.7125H16.7093C19.0452 71.7125 20.5522 70.265 20.5522 68.0323C20.5522 65.7996 19.0452 64.3521 16.7093 64.3521ZM16.0782 65.686H16.6528C18.254 65.686 19.1299 66.5186 19.1299 68.0323C19.1299 69.546 18.254 70.3785 16.6528 70.3785H16.0782V65.686Z" fill="#9E2127"/>
<path d="M23.4814 64.3521H22.078V71.7125H23.4814V64.3521Z" fill="#9E2127"/>
<path d="M24.7906 65.686H26.8346V71.7125H28.2192V65.686H30.2537V64.3521H24.7906V65.686Z" fill="#9E2127"/>
<path d="M35.6603 64.3521L33.9648 67.2943L32.26 64.3521H30.6776L33.2678 68.7891V71.7125H34.6524V68.7891L37.205 64.3521H35.6603Z" fill="#9E2127"/>
<path d="M51.7855 67.8147C52.1246 67.4741 52.3035 67.0011 52.3035 66.424C52.3035 65.1657 51.4276 64.3521 50.043 64.3521H47.4528V71.7125H50.1843C51.6725 71.7125 52.6238 70.8421 52.6238 69.5082C52.6238 68.7702 52.3318 68.1742 51.7761 67.8147M49.9865 65.6671C50.6175 65.6671 50.9189 65.9225 50.9189 66.4618C50.9189 67.0011 50.6646 67.2565 50.0901 67.2565H48.8373V65.6671H49.9865ZM48.8562 68.5526H50.1089C50.8436 68.5526 51.2392 68.8554 51.2392 69.4703C51.2392 70.0853 50.8813 70.388 50.1277 70.388H48.8562V68.5432V68.5526Z" fill="#9E2127"/>
<path d="M55.5437 64.3521H54.1403V71.7125H55.5437V64.3521Z" fill="#9E2127"/>
<path d="M62.3818 66.6983C62.3818 65.2887 61.3551 64.3521 59.8104 64.3521H57.4745V71.7125H58.8591V69.0257H59.735L61.3834 71.7125H62.9846L61.1385 68.7324C61.9297 68.3539 62.3818 67.6349 62.3818 66.6889M58.8497 65.686H59.7633C60.5733 65.686 60.9689 66.0266 60.9689 66.7172C60.9689 67.1524 60.8465 67.7106 59.7633 67.7106H58.8497V65.686Z" fill="#9E2127"/>
<path d="M65.4242 64.3521H64.0208V71.7125H68.4571V70.3975H65.4242V64.3521Z" fill="#9E2127"/>
<path d="M7.3656 71.6935H8.73135L9.34359 70.1798H11.6418L12.254 71.6935H13.6386L10.5115 64.0776L7.3656 71.6935ZM9.84279 68.931L10.4927 67.3227L11.1426 68.931H9.85221H9.84279Z" fill="#9E2127"/>
<path d="M36.6963 71.7126H38.062L38.6554 70.1989H40.9537L41.5659 71.7126H42.9505L39.8234 64.0967L36.6963 71.7126ZM39.1641 68.969L39.814 67.3606L40.4639 68.969H39.1735H39.1641Z" fill="#9E2127"/>
<path d="M69.333 71.6935H70.6988L71.311 70.1798H73.6092L74.2215 71.6935H75.606L72.4789 64.0776L69.333 71.6935ZM71.8008 68.931L72.4507 67.3227L73.1006 68.931H71.8102H71.8008Z" fill="#9E2127"/>
<path d="M20.1566 92.8761C19.9965 92.8761 19.8458 92.8477 19.6762 92.7815C19.5161 92.7152 19.3466 92.6206 19.177 92.4976C19.0075 92.3652 18.8379 92.2043 18.6496 91.9962C18.4706 91.7881 18.2822 91.5421 18.0844 91.2394C17.8866 90.9461 17.6794 90.6055 17.4534 90.2176C17.3874 90.2176 17.3121 90.2271 17.2273 90.2365C17.1331 90.2365 17.0578 90.2365 16.9824 90.2365C16.8129 90.2365 16.6339 90.2365 16.4361 90.2365C16.2383 90.2365 16.0499 90.2365 15.871 90.2176V92.7909H15.0515V86.1873C15.3247 86.1779 15.579 86.1589 15.8145 86.1495C16.0499 86.14 16.2666 86.1306 16.4738 86.1211C16.681 86.1211 16.8882 86.1211 17.0954 86.1211C17.5758 86.1211 17.9902 86.1495 18.3199 86.2157C18.659 86.2819 18.9321 86.386 19.1488 86.5374C19.3654 86.6887 19.5161 86.8874 19.6103 87.1334C19.7045 87.3794 19.7516 87.6821 19.7516 88.0416C19.7516 88.4295 19.6951 88.7606 19.582 89.0255C19.469 89.2904 19.2995 89.508 19.0734 89.6689C18.8474 89.8297 18.5742 89.9527 18.254 90.0284C18.4706 90.4068 18.6778 90.719 18.8756 90.9839C19.0734 91.2488 19.243 91.4569 19.4031 91.6178C19.5632 91.7786 19.7139 91.9016 19.8458 91.9773C19.9871 92.053 20.1095 92.0908 20.2225 92.0908H20.3638L20.3827 92.8666C20.3827 92.8666 20.3167 92.8761 20.279 92.8855C20.2414 92.8855 20.1943 92.8855 20.1472 92.8855L20.1566 92.8761ZM17.1331 89.5459C17.4439 89.5459 17.7171 89.5175 17.9431 89.4702C18.1692 89.4229 18.3482 89.3377 18.4989 89.2337C18.6401 89.1296 18.7532 88.9782 18.8191 88.7985C18.8945 88.6187 18.9227 88.3917 18.9227 88.1268C18.9227 87.7862 18.8662 87.5213 18.7626 87.3226C18.6496 87.1239 18.4612 86.982 18.1975 86.8874C17.9337 86.7928 17.5758 86.755 17.1237 86.755H16.7846C16.6904 86.755 16.5962 86.755 16.5115 86.755C16.4267 86.755 16.3325 86.755 16.2289 86.755C16.1253 86.755 16.0123 86.7644 15.8804 86.7739V89.4986C16.0028 89.4986 16.1159 89.508 16.2195 89.508C16.3231 89.508 16.4361 89.508 16.5397 89.508C16.6433 89.508 16.7469 89.508 16.8411 89.508H17.1425L17.1331 89.5459Z" fill="#9E2127"/>
<path d="M21.1362 92.7814V86.1968H25.3088V86.9253H21.9745V88.9972H25.0828V89.7162H21.9745V92.0719H25.4784V92.8004H21.1362V92.7814Z" fill="#9E2127"/>
<path d="M25.8362 92.7813L28.0873 86.1304H29.001L31.2615 92.7813H30.3667L29.8016 91.0783H27.2396L26.6745 92.7813H25.8268H25.8362ZM27.4092 90.3972H29.6415L28.53 86.9062L27.4186 90.3972H27.4092Z" fill="#9E2127"/>
<path d="M32.0151 92.7815V86.1968H32.8346V92.0719H35.9899V92.7909H32.0151V92.7815Z" fill="#9E2127"/>
<path d="M39.1735 92.7814V86.1968H43.3461V86.9253H40.0117V88.9972H43.12V89.7162H40.0117V92.0719H43.5156V92.8004H39.1735V92.7814Z" fill="#9E2127"/>
<path d="M48.4983 86.3858L48.3288 87.0291C48.2157 86.9912 48.0839 86.9534 47.9426 86.925C47.8013 86.8872 47.6506 86.8588 47.4905 86.8399C47.3303 86.8115 47.1796 86.7926 47.0195 86.7831C46.8594 86.7736 46.7087 86.7642 46.5674 86.7642C46.0965 86.7642 45.7103 86.8588 45.4277 87.0385C45.1451 87.2278 45.0039 87.4832 45.0039 87.8143C45.0039 87.9657 45.0321 88.0981 45.0981 88.2211C45.164 88.3441 45.2582 88.4577 45.3995 88.5617C45.5407 88.6753 45.7291 88.7793 45.9646 88.8739C46.2001 88.9685 46.4826 89.0726 46.8217 89.1861C47.1796 89.2997 47.4905 89.4227 47.7448 89.5456C47.9991 89.6781 48.1969 89.8105 48.3664 89.9619C48.5266 90.1133 48.649 90.2741 48.7149 90.4633C48.7903 90.6525 48.8185 90.8607 48.8185 91.0877C48.8185 91.4662 48.7149 91.7973 48.5171 92.0527C48.3193 92.3176 48.0274 92.5163 47.6506 92.6582C47.2738 92.8001 46.8123 92.8664 46.2754 92.8664C46.0965 92.8664 45.8987 92.8664 45.7009 92.838C45.4936 92.8191 45.2958 92.7907 45.0792 92.7623C44.872 92.7245 44.6648 92.6866 44.4764 92.6393C44.2786 92.592 44.1185 92.5447 43.9678 92.4879L44.1562 91.8446C44.2974 91.8919 44.4576 91.9392 44.6459 91.9865C44.8249 92.0338 45.0133 92.0717 45.2111 92.1095C45.4089 92.1473 45.5973 92.1663 45.7856 92.1852C45.974 92.2041 46.153 92.2041 46.3131 92.2041C46.671 92.2041 46.9818 92.1663 47.2267 92.0811C47.4716 91.996 47.66 91.8824 47.7919 91.7216C47.9237 91.5608 47.9803 91.3716 47.9803 91.1445C47.9803 90.9837 47.9426 90.8512 47.8672 90.7188C47.7919 90.5958 47.6788 90.4823 47.5187 90.3782C47.3586 90.2741 47.1608 90.17 46.9159 90.066C46.671 89.9619 46.3696 89.8578 46.0305 89.7443C45.7009 89.6308 45.4183 89.5078 45.1734 89.3848C44.9379 89.2524 44.7401 89.1199 44.5894 88.9685C44.4387 88.8172 44.3257 88.6563 44.2598 88.4671C44.1938 88.2874 44.1562 88.0792 44.1562 87.8427C44.1562 87.5778 44.2127 87.3413 44.3163 87.1237C44.4199 86.9061 44.58 86.7263 44.7778 86.5655C44.9756 86.4047 45.2299 86.2911 45.5313 86.206C45.8327 86.1209 46.1812 86.083 46.5674 86.083C46.784 86.083 47.0195 86.0925 47.255 86.1209C47.4999 86.1492 47.7259 86.1871 47.9332 86.2249C48.1498 86.2722 48.3288 86.3195 48.4795 86.3668L48.4983 86.3858Z" fill="#9E2127"/>
<path d="M53.8577 86.9155H51.8326V92.7811H51.0226V86.9155H49.0164V86.187H53.8483V86.9155H53.8577Z" fill="#9E2127"/>
<path d="M53.4339 92.7813L55.685 86.1304H56.5986L58.8592 92.7813H57.9644L57.3992 91.0783H54.8373L54.2721 92.7813H53.4244H53.4339ZM55.0162 90.3972H57.2485L56.1371 86.9062L55.0257 90.3972H55.0162Z" fill="#9E2127"/>
<path d="M63.2579 86.9155H61.2328V92.7811H60.4227V86.9155H58.4165V86.187H63.2484V86.9155H63.2579Z" fill="#9E2127"/>
<path d="M64.0114 92.7814V86.1968H68.184V86.9253H64.8496V88.9972H67.9579V89.7162H64.8496V92.0719H68.3535V92.8004H64.0114V92.7814Z" fill="#9E2127"/>
<path d="M75.5307 43.472L66.3284 47.7293L56.2218 35.0803L67.5057 16.6035H75.5307V43.472Z" fill="#9E2127"/>
<path d="M75.5307 59.2527V43.4722L66.3284 47.7295L75.5307 59.2527Z" fill="#E16F2A"/>
<path d="M56.2219 35.0803L41.4435 16.6035H67.5058L56.2219 35.0803Z" fill="#E16F2A"/>
<path d="M52.1529 41.7314L56.203 35.0994L41.4435 16.6226V38.7512H41.5377C45.4371 38.7323 49.0728 39.8392 52.1529 41.7314Z" fill="#FFC763"/>
<path d="M41.5377 38.7324H41.4435V59.2528L52.1623 41.7315C49.0634 39.8393 45.4465 38.7324 41.5471 38.7324" fill="#9E2127"/>
<path d="M60.0836 50.634L66.3284 47.739L56.2218 35.0806L52.1622 41.7315C55.6002 43.8412 58.3693 46.9349 60.093 50.634" fill="#E16F2A"/>
<path d="M52.1529 41.7314L41.4341 59.2717L60.0742 50.634C58.3506 46.9349 55.5814 43.8412 52.1435 41.7314" fill="#C6212A"/>
<path d="M66.3284 47.7295L60.0836 50.6245C61.2987 53.2451 61.9862 56.1685 61.9862 59.2621H75.5307L66.3284 47.7295Z" fill="#FFC763"/>
<path d="M41.4435 59.2524H61.9674C61.9674 56.1777 61.2987 53.2448 60.0836 50.6147L41.4435 59.2524Z" fill="#9E2127"/>
<path d="M7.3656 43.472L16.5774 47.7293L26.6839 35.0803L15.3906 16.6035H7.3656V43.472Z" fill="#9E2127"/>
<path d="M7.3656 59.2527V43.4722L16.5774 47.7295L7.3656 59.2527Z" fill="#E16F2A"/>
<path d="M26.684 35.0803L41.4435 16.6035H15.3906L26.684 35.0803Z" fill="#E16F2A"/>
<path d="M30.7247 41.7314L26.6746 35.0994L41.4341 16.6226V38.7512H41.3399C37.4593 38.7323 33.8236 39.8392 30.7247 41.7314Z" fill="#C6212A"/>
<path d="M41.3399 38.7324H41.4341V59.2528L30.7341 41.7315C33.8141 39.8393 37.4499 38.7324 41.3305 38.7324" fill="#E16F2A"/>
<path d="M22.8128 50.634L16.568 47.739L26.6746 35.0806L30.7247 41.7125C27.2868 43.8317 24.5176 46.9254 22.8128 50.634Z" fill="#E16F2A"/>
<path d="M30.7247 41.7314L41.4435 59.2717L22.8127 50.634C24.5176 46.9349 27.2868 43.8412 30.7247 41.7314Z" fill="#C6212A"/>
<path d="M16.5774 47.7295L22.8221 50.6245C21.6071 53.2451 20.9195 56.1685 20.9195 59.2621H7.3656L16.5679 47.7295" fill="#FFC763"/>
<path d="M41.4435 59.2524H20.9196C20.9196 56.1777 21.5883 53.2448 22.8222 50.6147L41.4529 59.2524" fill="#9E2127"/>
<path d="M30.2444 78.4771H52.7275V79.3001H30.2444V78.4771Z" fill="#9E2127"/>
</g>
<defs>
<clipPath id="clip0_921_726">
<rect width="83" height="100" fill="white"/>
</clipPath>
</defs>
</svg>
